<?xml version="1.0" encoding="UTF-8" standalone="no"?>
<!-- Created with Inkscape (http://www.inkscape.org/) -->

<svg
   xmlns:dc="http://purl.org/dc/elements/1.1/"
   xmlns:cc="http://creativecommons.org/ns#"
   xmlns:rdf="http://www.w3.org/1999/02/22-rdf-syntax-ns#"
   xmlns:svg="http://www.w3.org/2000/svg"
   xmlns="http://www.w3.org/2000/svg"
   xmlns:sodipodi="http://sodipodi.sourceforge.net/DTD/sodipodi-0.dtd"
   xmlns:inkscape="http://www.inkscape.org/namespaces/inkscape"
   id="svg3039"
   version="1.1"
   inkscape:version="0.48.2 r9819"
   width="690"
   height="1811"
   sodipodi:docname="Annwvyn Body.png">
  <metadata
     id="metadata3045">
    <rdf:RDF>
      <cc:Work
         rdf:about="">
        <dc:format>image/svg+xml</dc:format>
        <dc:type
           rdf:resource="http://purl.org/dc/dcmitype/StillImage" />
        <dc:title></dc:title>
      </cc:Work>
    </rdf:RDF>
  </metadata>
  <defs
     id="defs3043">
    <filter
       inkscape:collect="always"
       id="filter3875">
      <feGaussianBlur
         inkscape:collect="always"
         stdDeviation="2.6859581"
         id="feGaussianBlur3877" />
    </filter>
  </defs>
  <sodipodi:namedview
     pagecolor="#ffffff"
     bordercolor="#666666"
     borderopacity="1"
     objecttolerance="10"
     gridtolerance="10"
     guidetolerance="10"
     inkscape:pageopacity="0"
     inkscape:pageshadow="2"
     inkscape:window-width="1920"
     inkscape:window-height="965"
     id="namedview3041"
     showgrid="false"
     inkscape:zoom="0.90509668"
     inkscape:cx="261.29847"
     inkscape:cy="1428.2317"
     inkscape:window-x="0"
     inkscape:window-y="0"
     inkscape:window-maximized="1"
     inkscape:current-layer="svg3039" />
  <path
     style="fill:#f4e3d7;stroke:#000000;stroke-width:3;stroke-linecap:butt;stroke-linejoin:miter;stroke-miterlimit:4;stroke-opacity:1;stroke-dasharray:none"
     d="m 265.70656,424.78089 c -12.83954,-9.56997 -50.1252,-94.84899 -50.69401,-121.19949 -0.70523,-32.66981 6.99228,-68.7574 32.04794,-87.40347 25.05566,-18.64608 50.11132,-26.80374 72.25354,-27.38643 22.14221,-0.58269 64.78889,12.35506 75.16699,26.80374 12.85007,17.89023 33.79601,64.67857 24.47297,111.29375 -9.32304,46.61519 -36.70946,74.5843 -34.96139,93.81307 1.74807,19.22876 -1.16538,73.41892 23.30759,111.29376 24.47298,37.87484 25.42886,33.96336 33.21332,66.42664 12.55429,52.35474 -22.7249,105.46686 -18.06338,173.64157 4.66152,68.17471 60.59974,175.97233 60.01705,251.72197 -0.58269,75.7497 -14.56724,135.1841 -18.64607,168.3974 -4.07883,33.2133 -25.05567,141.0109 -33.21332,162.5705 -8.15766,21.5595 -10.48842,37.8748 -11.07111,48.3632 -0.58269,10.4884 -1.16538,26.2211 0.58269,42.5364 1.74807,16.3153 5.8269,80.4112 0,119.4514 -5.8269,39.0402 -12.81918,75.167 -14.56725,90.3169 -1.74807,15.15 -1.16538,25.6384 3.49614,32.6306 4.66152,6.9923 3.49614,27.3864 1.74807,30.8826 -1.74807,3.4961 -5.2442,18.0633 -10.48841,20.3941 -5.24421,2.3308 -16.89801,4.6616 -23.3076,4.6616 -6.40959,0 -26.80373,-2.9134 -39.62291,-2.9134 -12.81918,0 -26.22104,-2.9135 -46.03249,1.748 -19.81146,4.6615 -27.96911,6.9923 -39.62291,6.9923 -11.65379,0 -29.83038,3.6269 -31.46525,-6.9923 -2.18484,-14.1914 23.68894,-14.9418 37.29215,-21.5596 21.55952,-10.4884 54.3061,-20.5275 62.9305,-25.6383 15.73263,-9.323 24.47297,-8.1576 24.47297,-27.9691 0,-19.8115 -19.22876,-117.7033 -18.06338,-152.082 1.16538,-34.3787 6.40958,-76.9151 9.32303,-87.9862 2.91345,-11.0711 -9.90572,-16.898 -8.74034,-23.8903 1.16538,-6.9923 -1.74807,-29.7172 4.66151,-51.8594 6.40959,-22.1422 -4.07882,-39.6229 -9.32303,-53.0248 -5.24421,-13.4018 -15.73262,-63.5132 -19.22876,-108.963 -3.49614,-45.4498 -15.73263,-189.95685 -6.99228,-215.5952 8.74034,-25.63835 -5.8269,-65.26126 -17.4807,-97.89189 -11.6538,-32.63063 -24.51728,-133.48055 -20.97683,-180.05116 5.11656,-67.30257 28.78721,-139.6865 38.68207,-174.03869 12.43504,-43.17101 19.78547,-19.99703 23.66574,-56.1238 3.89006,-36.21795 2.91345,-31.46525 -2.33076,-34.96139 -5.24421,-3.49613 -18.84976,-7.88384 -29.13449,-5.82689 -11.6538,2.33076 -17.07642,4.06173 -23.3076,-0.58269 z"
     id="path3049"
     inkscape:connector-curvature="0"
     sodipodi:nodetypes="sssssssssssssssssscsssssssssssssssssssssss" />
  <path
     style="fill:#f4e3d7;stroke:#000000;stroke-width:3;stroke-linecap:butt;stroke-linejoin:miter;stroke-miterlimit:4;stroke-opacity:1;stroke-dasharray:none"
     d="m 303.89943,584.21836 c 0,0 15.49052,-24.83612 44.04233,-31.8284 28.5518,-6.99228 43.04312,1.74807 48.28733,12.81918 5.24421,11.0711 3.49614,174.04375 -1.74807,220.07625 -5.24421,46.0325 -5.48631,64.88988 -13.64397,85.28402 -8.15766,20.39415 -12.138,28.67895 -22.62642,57.81349 -10.48842,29.1344 -57.76222,169.0867 -64.7545,178.4097 -6.99227,9.3231 -23.81733,95.8792 -34.88844,98.21 -11.07111,2.3307 -59.28777,-29.7172 -56.95701,-41.371 2.33076,-11.6538 52.44209,-55.9382 57.10361,-64.6786 4.66151,-8.7403 15.75519,-132.73221 23.91285,-155.45711 8.15765,-22.72491 31.00361,-87.06289 28.09016,-94.63785 -2.91345,-7.57497 -19.95507,-95.44009 -22.86852,-132.73224 -2.91345,-37.29215 10.80644,-111.5133 16.05065,-131.90744 z"
     id="path3051"
     inkscape:connector-curvature="0"
     sodipodi:nodetypes="cssssssssssssc" />
  <path
     style="fill:none;stroke:#ff0000;stroke-width:5;stroke-linecap:round;stroke-linejoin:round;stroke-miterlimit:1.29999995;stroke-opacity:1;stroke-dasharray:none;filter:url(#filter3875)"
     d="m 78.080438,331.28585 c -11.997078,224.49843 -1.157199,1140.11735 0,1264.26755 1.009979,108.3556 173.208622,165.5062 281.528342,162.5405 94.19534,-2.579 237.60931,-65.8278 236.7176,-160.0542 C 594.53896,1409.1632 607.34,455.25645 594.11667,303.97867 580.89334,152.70089 403.10161,108.2615 350.44557,109.8957 297.78953,111.5299 90.077516,106.78742 78.080438,331.28585 z"
     id="path3055"
     inkscape:connector-curvature="0"
     sodipodi:nodetypes="zssszzz" />
  <g
     id="g3881"
     transform="translate(7.03125,-3.90625)">
    <rect
       y="264.20392"
       x="203.2932"
       height="75.130096"
       width="33.14563"
       id="rect3853"
       style="fill:#000000;fill-opacity:1;stroke:#757575;stroke-width:6;stroke-miterlimit:1.29999995;stroke-opacity:1;stroke-dasharray:none" />
    <rect
       y="291.82526"
       x="236.99126"
       height="35.355339"
       width="192.79709"
       id="rect3855"
       style="fill:#000000;fill-opacity:1;stroke:#757575;stroke-width:6;stroke-miterlimit:1.29999995;stroke-opacity:1;stroke-dasharray:none" />
    <path
       inkscape:connector-curvature="0"
       id="path3857"
       d="m 203.2932,264.20391 0,75.68252 -21.82087,21.82088 0,-119.60049 23.89247,23.89248"
       style="fill:#000000;stroke:#898989;stroke-width:4.80000019;stroke-linecap:butt;stroke-linejoin:miter;stroke-miterlimit:4;stroke-opacity:1;stroke-dasharray:none" />
  </g>
  <path
     sodipodi:type="star"
     style="opacity:0.35338344;fill:#0000ff;fill-opacity:1;stroke:#898989;stroke-width:4.80000019;stroke-linecap:round;stroke-linejoin:round;stroke-miterlimit:4;stroke-opacity:1;stroke-dasharray:none"
     id="path3879"
     sodipodi:sides="3"
     sodipodi:cx="322.61746"
     sodipodi:cy="257.5748"
     sodipodi:r1="45.98106"
     sodipodi:r2="22.99053"
     sodipodi:arg1="2.1854593"
     sodipodi:arg2="3.2326568"
     inkscape:flatsided="false"
     inkscape:rounded="0"
     inkscape:randomized="0"
     d="m 296.10096,295.13985 3.62123,-39.65577 3.62124,-39.65577 32.53228,22.96396 32.53229,22.96397 -36.15352,16.6918 z"
     inkscape:transform-center-x="-5.132921"
     inkscape:transform-center-y="9.7016551"
     transform="matrix(2.7864187,-0.4464864,0.26196748,2.0002893,-752.77213,-73.339663)" />
  <flowRoot
     xml:space="preserve"
     id="flowRoot3886"
     style="font-size:40px;font-style:normal;font-weight:normal;line-height:125%;letter-spacing:0px;word-spacing:0px;fill:#f31100;fill-opacity:1;stroke:none;font-family:Sans"
     transform="translate(95.017474,11.048543)"><flowRegion
       id="flowRegion3888"><rect
         id="rect3890"
         width="570.10486"
         height="70.710678"
         x="37.565048"
         y="29.974791"
         style="fill:#f31100;fill-opacity:1" /></flowRegion><flowPara
       id="flowPara3894">Physical Rigid Body</flowPara></flowRoot>  <flowRoot
     xml:space="preserve"
     id="flowRoot3898"
     style="font-size:40px;font-style:normal;font-weight:normal;line-height:125%;letter-spacing:0px;word-spacing:0px;fill:#000000;fill-opacity:1;stroke:none;font-family:Sans"
     transform="translate(309.35922,-220.97087)"><flowRegion
       id="flowRegion3900"><rect
         id="rect3902"
         width="424.26407"
         height="72.920387"
         x="150.26019"
         y="969.10101" /></flowRegion><flowPara
       id="flowPara3906">VisualBody</flowPara></flowRoot>  <flowRoot
     xml:space="preserve"
     id="flowRoot3922"
     style="font-size:40px;font-style:normal;font-weight:normal;line-height:125%;letter-spacing:0px;word-spacing:0px;fill:#0e15ff;fill-opacity:1;stroke:none;font-family:Sans"
     transform="translate(-8.8388346,-50.823296)"><flowRegion
       id="flowRegion3924"><rect
         id="rect3926"
         width="521.49127"
         height="150.26019"
         x="90.598053"
         y="474.12625"
         style="fill:#0e15ff;fill-opacity:1" /></flowRegion><flowPara
       id="flowPara3928">Head-Inside </flowPara><flowPara
       id="flowPara3930">Camera</flowPara></flowRoot></svg>
